<?xml version="1.0" encoding="UTF-8"?>
<svg id="Layer_1" data-name="Layer 1" xmlns="http://www.w3.org/2000/svg" viewBox="0 0 183.78 225">
  <defs>
    <style>
      .cls-1 {
        fill: #fddfb1;
      }

      .cls-2 {
        fill: #a87b4f;
      }

      .cls-3 {
        fill: #afaeae;
      }

      .cls-4 {
        fill: #252122;
      }

      .cls-5 {
        fill: #536978;
      }
    </style>
  </defs>
  <path class="cls-4" d="M101.62,.79c18.45,3.18,32.27,13.32,42.82,28.43,1.59,2.28,2.23,4.63,2.2,7.43-.12,12.47-.05,24.94-.05,37.21,.54,.4,.78,.69,1.06,.75,7.99,1.71,12.14,4.91,12.65,10.75,.67,7.59-3.74,12.78-9.9,15.95-3.86,1.99-5.34,4.46-6.37,8.42-3.51,13.5-10.83,24.53-22.54,32.42-3.77,2.54-4.35,11.97-.68,14.71,6.26,4.67,12.74,9.05,20.21,11.66,9.96,3.47,19.34,8.04,27.39,14.96,10.08,8.67,16.38,19.13,15.25,33.04-.23,2.81-.09,5.66-.13,8.49H.53c-2.6-19.79,4.42-35.11,21.19-46.01,6.3-4.1,12.93-7.53,20.02-9.96,7.67-2.62,14.32-6.97,20.79-11.61,4.54-3.26,4.15-12.4-.44-15.59-11.89-8.25-19.12-19.68-22.48-33.59-.72-2.97-1.57-5.24-4.73-6.16-1.08-.31-2.08-1.04-2.99-1.74-5.14-3.89-9.2-8.57-8.01-15.5,1.2-7.03,6.77-9.31,13.59-10.43,0-10.74,.54-21.55-.18-32.27-.53-8.04,2.36-14.03,7.44-19.7C54.94,11.04,67.19,3.35,82.43,.79c1.09-.04,2.39,.75,3.1-.79h13c.7,1.55,2.01,.76,3.1,.79Zm74.6,216.93c.86-9.18,.34-12.47-3.86-19.16-6.17-9.83-15.49-15.91-25.88-20.37-7.48-3.21-15.25-5.76-22.08-10.34-3.01-2.02-6.04-4-9.13-6.05-4.59,3.96-9.65,6.61-16.41,9.52,6.86,6.41,12.78,11.94,18.88,17.64-1.8,1.73-2.81,3.49-5.88,4.42-6.17-6.49-12.67-13.32-19.84-20.87-7.17,7.55-13.66,14.38-19.95,21.01-2.93-1.35-4.51-2.67-6.22-5.89,5.89-5.54,11.78-11.08,18.08-17.01-6.01-2.02-10.66-5.45-15.25-8.6-5.22,3.23-10.16,6.29-15.1,9.34-5.15,3.17-11.12,4.42-16.51,7-7.99,3.83-15.61,8.28-21.5,15.1-5.97,6.91-9.67,14.59-7.62,24.25H176.22ZM44.43,69.24c.72,13.18-1.47,26.09,2.18,38.65,5.4,18.56,16.81,31.36,36.32,34.98,19.18,3.56,35.2-2.46,46.86-18.45,11.1-15.22,10.19-32.77,9.48-50.28-19.45-2.81-35.8-12.33-51.85-22.19-12.91,9.45-27.36,14.19-42.99,17.29Zm29.4-39.74c17.52,20.08,39.66,31.53,65.64,37.99,0-11.29,.06-21.73-.08-32.16-.01-1.19-.93-2.46-1.67-3.53-22.96-33.1-68.51-33.09-91.41,.03-.74,1.07-1.64,2.34-1.66,3.54-.14,8.76-.08,17.52-.08,26.7,13.52-2.8,25.84-6.75,36.92-14.51-4.19-5.05-9.63-8.56-12.84-14.38,1.84-1.3,3.44-2.43,5.18-3.66Zm-1.53,117.86c.48,3.93-1,7.12,2.17,9.95,9.72,8.7,21.12,9.61,31.93,2.51,4.59-3.01,6.69-6.6,4.68-12.24-12.64,4.23-25.37,4.23-38.77-.22Zm74.5-51.72c3.66-2.61,7-4.96,6.46-9.46-.38-3.18-3.15-4.25-6.46-4.43v13.89Zm-109.6-.22v-13.76c-3.33,.37-6.15,1.4-6.43,4.67-.37,4.25,2.66,6.69,6.43,9.09Z"/>
  <path class="cls-3" d="M85.53,0c-.7,1.55-2.01,.76-3.1,.79,.06-.26,.09-.53,.1-.79h3Z"/>
  <path class="cls-3" d="M101.62,.79c-1.09-.03-2.39,.75-3.1-.79h3c0,.27,.04,.53,.1,.79Z"/>
  <path class="cls-5" d="M176.22,217.72H7.97c-2.05-9.67,1.64-17.34,7.62-24.25,5.89-6.82,13.51-11.27,21.5-15.1,5.39-2.58,11.36-3.83,16.51-7,4.95-3.04,9.88-6.11,15.1-9.34,4.58,3.16,9.23,6.58,15.25,8.6-6.31,5.93-12.19,11.47-18.08,17.01,1.71,3.21,3.28,4.54,6.22,5.89,6.29-6.63,12.78-13.46,19.95-21.01,7.17,7.54,13.67,14.38,19.84,20.87,3.07-.93,4.08-2.69,5.88-4.42-6.1-5.7-12.02-11.22-18.88-17.64,6.76-2.91,11.82-5.56,16.41-9.52,3.09,2.05,6.12,4.04,9.13,6.05,6.83,4.58,14.6,7.13,22.08,10.34,10.38,4.45,19.7,10.54,25.88,20.37,4.2,6.68,4.72,9.98,3.86,19.16Zm-79.84-29.07c-2.88-1.11-5.68-.91-8.51-.18-.46,2.17-.73,4.08,.31,6.23,2.66,.26,5.36,.7,8.21-.4v-5.65Zm-8.25,20.03c2.87,.18,5.46,.69,8.04-.37,.47-2.15,.94-4.2-.58-6.36-2.51,.19-5.11-.46-7.63,.44-.65,2.12-.74,4,.17,6.28Z"/>
  <path class="cls-1" d="M44.43,69.24c15.63-3.1,30.07-7.84,42.99-17.29,16.04,9.86,32.4,19.37,51.85,22.19,.71,17.51,1.62,35.06-9.48,50.28-11.66,15.99-27.68,22.01-46.86,18.45-19.5-3.62-30.92-16.42-36.32-34.98-3.65-12.56-1.46-25.47-2.18-38.65Zm44.04,17.84c0,6.09-.03,11.87,.02,17.65,.02,2.77,1.41,4.33,4.31,4.33,2.76,0,5.52,0,8.33,0,.11-2.76,.7-4.88-.4-6.89-1.69-.14-3.28-.27-5.25-.44v-14.66h-7Z"/>
  <path class="cls-2" d="M73.83,29.51c-1.74,1.23-3.34,2.36-5.18,3.66,3.21,5.82,8.65,9.33,12.84,14.38-11.07,7.76-23.4,11.72-36.92,14.51,0-9.19-.06-17.95,.08-26.7,.02-1.19,.92-2.47,1.66-3.54,22.89-33.12,68.45-33.13,91.41-.03,.74,1.07,1.66,2.34,1.67,3.53,.13,10.44,.08,20.88,.08,32.16-25.97-6.45-48.11-17.9-65.64-37.99Z"/>
  <path class="cls-1" d="M72.3,147.37c13.4,4.45,26.13,4.46,38.77,.22,2.01,5.64-.09,9.23-4.68,12.24-10.81,7.1-22.21,6.19-31.93-2.51-3.16-2.83-1.69-6.02-2.17-9.95Z"/>
  <path class="cls-1" d="M146.8,95.65v-13.89c3.31,.17,6.09,1.25,6.46,4.43,.53,4.5-2.81,6.85-6.46,9.46Z"/>
  <path class="cls-1" d="M37.2,95.43c-3.78-2.4-6.8-4.83-6.43-9.09,.28-3.27,3.1-4.3,6.43-4.67v13.76Z"/>
  <path class="cls-4" d="M96.38,188.66v5.65c-2.85,1.1-5.55,.66-8.21,.4-1.04-2.15-.77-4.06-.31-6.23,2.83-.73,5.63-.93,8.51,.18Z"/>
  <path class="cls-4" d="M88.12,208.69c-.91-2.27-.81-4.16-.17-6.28,2.52-.91,5.12-.26,7.63-.44,1.52,2.16,1.05,4.2,.58,6.36-2.58,1.05-5.17,.55-8.04,.37Z"/>
  <path class="cls-4" d="M88.47,87.08h7v14.66c1.96,.16,3.55,.3,5.25,.44,1.11,2.01,.51,4.13,.4,6.89-2.81,0-5.57,0-8.33,0-2.89,0-4.28-1.56-4.31-4.33-.05-5.78-.02-11.57-.02-17.65Z"/>
</svg>